<svg xmlns="http://www.w3.org/2000/svg" viewBox="0 0 192 192" width="192" height="192">
  <defs>
    <linearGradient id="bg" x1="0%" y1="0%" x2="100%" y2="100%">
      <stop offset="0%" style="stop-color:#0891b2"/>
      <stop offset="100%" style="stop-color:#06b6d4"/>
    </linearGradient>
    <linearGradient id="heart" x1="0%" y1="0%" x2="100%" y2="100%">
      <stop offset="0%" style="stop-color:#f43f5e"/>
      <stop offset="100%" style="stop-color:#fb7185"/>
    </linearGradient>
  </defs>
  <rect width="192" height="192" rx="40" fill="url(#bg)"/>
  <path d="M96 140c-4 0-7.5-1.6-10-4l-25-25c-6.5-6.5-10-14.5-10-22 0-14.5 12-26 26-26 7.5 0 14.5 3 19 8 4.5-5 11.5-8 19-8 14.5 0 26 12 26 26 0 8-3.5 16-10 22l-25 25c-2.5 2.4-6 4-10 4z" fill="url(#heart)"/>
  <path d="M64 88h64M96 56v64" stroke="white" stroke-width="6" stroke-linecap="round"/>
</svg>
