<svg xmlns="http://www.w3.org/2000/svg" viewBox="0 0 72 72" width="72" height="72">
  <defs>
    <linearGradient id="bg" x1="0%" y1="0%" x2="100%" y2="100%">
      <stop offset="0%" style="stop-color:#0891b2"/>
      <stop offset="100%" style="stop-color:#06b6d4"/>
    </linearGradient>
    <linearGradient id="heart" x1="0%" y1="0%" x2="100%" y2="100%">
      <stop offset="0%" style="stop-color:#f43f5e"/>
      <stop offset="100%" style="stop-color:#fb7185"/>
    </linearGradient>
  </defs>
  <rect width="72" height="72" rx="16" fill="url(#bg)"/>
  <path d="M36 52c-1.5 0-2.8-.6-3.8-1.5l-9.5-9.5C20.3 38.6 19 35.8 19 32.8c0-5.5 4.5-10 10-10 2.8 0 5.4 1.2 7.2 3.1 1.8-1.9 4.4-3.1 7.2-3.1 5.5 0 10 4.5 10 10 0 3-1.3 5.8-3.7 8.2l-9.5 9.5c-1 .9-2.3 1.5-3.8 1.5z" fill="url(#heart)"/>
  <path d="M24 33h24M36 25v16" stroke="white" stroke-width="2.5" stroke-linecap="round"/>
</svg>
